<?xml version="1.0" encoding="UTF-8" standalone="no"?><!DOCTYPE svg PUBLIC "-//W3C//DTD SVG 1.1//EN" "http://www.w3.org/Graphics/SVG/1.1/DTD/svg11.dtd"><svg width="100%" height="100%" viewBox="0 0 1988 825" version="1.1" xmlns="http://www.w3.org/2000/svg" xmlns:xlink="http://www.w3.org/1999/xlink" xml:space="preserve" xmlns:serif="http://www.serif.com/" style="fill-rule:evenodd;clip-rule:evenodd;stroke-linecap:round;stroke-linejoin:round;stroke-miterlimit:1.5;"><rect id="画板1" x="0" y="0" width="1987.5" height="825" style="fill:none;"/><g><path d="M210.418,624.085c0,14.062 11.398,25.46 25.46,25.46l178.222,-0c14.062,-0 25.46,-11.398 25.46,-25.46l-0,-86.183l-229.142,-0l0,86.183Z" style="fill:#8c9eff;fill-rule:nonzero;"/><path d="M414.1,242.182l-178.222,-0c-14.062,-0 -25.46,11.398 -25.46,25.46l0,270.26l229.142,-0l-0,-270.26c-0,-14.062 -11.398,-25.46 -25.46,-25.46Z" style="fill:#e1f5ff;fill-rule:nonzero;"/><path d="M299.529,591.273c-0,13.967 11.493,25.46 25.46,25.46c13.967,0 25.46,-11.493 25.46,-25.46c0,-13.967 -11.493,-25.46 -25.46,-25.46c-13.967,-0 -25.46,11.493 -25.46,25.46Z" style="fill:#ffd600;fill-rule:nonzero;"/><path d="M363.179,283.386l-76.38,0c-5.274,0 -9.548,-4.273 -9.548,-9.547c0,-5.274 4.274,-9.548 9.548,-9.548l76.38,0c5.274,0 9.548,4.274 9.548,9.548c-0,5.274 -4.274,9.547 -9.548,9.547Z" style="fill:#313fa0;fill-rule:nonzero;"/></g><g><path d="M1788.33,627.613l-239.723,0c-21.306,0 -39.491,-15.496 -42.994,-36.641l-21.19,-197.346c-3.955,-23.895 12.084,-46.485 35.833,-50.471c2.363,-0.397 4.76,-0.595 7.165,-0.595l239.719,-0c21.306,-0 39.492,15.5 42.994,36.645l21.19,197.35c3.955,23.89 -12.084,46.485 -35.829,50.467c-2.367,0.397 -4.764,0.595 -7.165,0.595l-0,-0.004Z" style="fill:#1e2147;fill-rule:nonzero;"/><path d="M1548.6,605.689c-10.668,0.023 -19.777,-7.75 -21.5,-18.339l-21.022,-196.084c-1.236,-7.709 0.491,-14.013 4.705,-19.017c4.099,-4.952 10.218,-7.805 16.646,-7.762l239.708,0c10.664,-0.037 19.777,7.724 21.497,18.317l21.021,196.114c1.236,7.705 -0.487,14.024 -4.705,19.021c-4.093,4.945 -10.201,7.795 -16.62,7.754l-239.73,0l0,-0.004Z" style="fill:#2c2f53;fill-rule:nonzero;"/><path d="M1570.98,539.91l196.152,-0c12.039,-0 21.793,9.814 21.793,21.927c-0,12.107 -9.754,21.928 -21.793,21.928l-196.152,0c-12.031,0 -21.793,-9.821 -21.793,-21.928c0.004,-12.113 9.762,-21.927 21.793,-21.927Z" style="fill:#4c4f6e;fill-rule:nonzero;"/><path d="M1690.86,583.765l239.73,0c18.054,0 32.693,14.721 32.693,32.888c-0,18.167 -14.635,32.888 -32.693,32.888l-239.73,0c-18.055,0 -32.69,-14.721 -32.69,-32.888c0,-18.167 14.635,-32.888 32.69,-32.888Z" style="fill:#999aac;fill-rule:nonzero;"/><path d="M1560.09,583.765l130.765,0c18.055,0 32.689,14.721 32.689,32.888c0,18.167 -14.634,32.888 -32.689,32.888l-130.765,0c-18.051,0 -32.686,-14.721 -32.686,-32.888c0,-18.167 14.635,-32.888 32.686,-32.888Z" style="fill:#cacad4;fill-rule:nonzero;"/><path d="M1592.79,539.91c-0,12.106 -9.758,21.927 -21.797,21.927c-12.031,0 -21.793,-9.821 -21.793,-21.927c0,-12.114 9.762,-21.932 21.793,-21.932c12.039,0 21.797,9.814 21.797,21.932Z" style="fill:#11cbe5;fill-rule:nonzero;"/><path d="M1658.17,539.91c0,12.106 -9.761,21.927 -21.793,21.927c-12.038,0 -21.796,-9.821 -21.796,-21.927c-0,-12.114 9.758,-21.932 21.796,-21.932c12.032,0 21.793,9.814 21.793,21.932Z" style="fill:#91edf8;fill-rule:nonzero;"/><path d="M1723.55,539.91c0,12.106 -9.754,21.927 -21.789,21.927c-12.039,0 -21.797,-9.821 -21.797,-21.927c0,-12.114 9.758,-21.932 21.797,-21.932c12.035,0 21.789,9.814 21.789,21.932Z" style="fill:#fdb8bf;fill-rule:nonzero;"/><path d="M1788.93,539.91c-0,12.106 -9.754,21.927 -21.793,21.927c-12.035,0 -21.797,-9.821 -21.797,-21.927c0,-12.114 9.762,-21.932 21.797,-21.932c12.039,0 21.793,9.814 21.793,21.932Z" style="fill:#fa4659;fill-rule:nonzero;"/><path d="M1560.09,517.978c6.023,0 10.9,4.911 10.9,10.964c-0,0.013 -0,0.025 -0,0.038c-0,5.984 -4.916,10.913 -10.9,10.93c-5.982,-0.021 -10.893,-4.948 -10.893,-10.93c-0,-0.013 -0,-0.025 -0,-0.038c-0.019,-5.995 4.898,-10.943 10.893,-10.964Z" style="fill:#bcf4f5;fill-rule:nonzero;"/><path d="M1690.86,517.978c6.019,0 10.9,4.911 10.9,10.964c0,0.013 0,0.025 0,0.038c0,5.984 -4.915,10.913 -10.9,10.93c-5.984,-0.019 -10.897,-4.947 -10.897,-10.93c0,-0.013 0,-0.025 0,-0.038c0,-0.011 0,-0.022 0,-0.034c0,-5.985 4.916,-10.913 10.901,-10.93l-0.004,0Zm65.382,0c6.016,0 10.897,4.911 10.897,10.964c-0,0.013 -0,0.025 -0,0.038c-0,5.984 -4.916,10.913 -10.9,10.93c-5.984,-0.019 -10.897,-4.947 -10.897,-10.93c0,-0.013 0,-0.025 0,-0.038c0,-0.011 0,-0.022 0,-0.034c0,-5.985 4.916,-10.913 10.9,-10.93Z" style="fill:#fedee1;fill-rule:nonzero;"/><path d="M1625.47,517.978c6.02,0 10.9,4.911 10.9,10.964c0.001,0.013 0.001,0.025 0.001,0.038c-0,5.984 -4.916,10.913 -10.901,10.93c-5.983,-0.019 -10.896,-4.947 -10.896,-10.93c-0,-0.013 -0,-0.025 -0,-0.038c-0,-0.011 -0,-0.022 -0,-0.034c-0,-5.985 4.915,-10.913 10.9,-10.93l-0.004,0Z" style="fill:#e9fff5;fill-rule:nonzero;"/><path d="M1560.09,605.689l21.796,0c6.02,0 10.897,4.907 10.897,10.964c-0,0.013 -0,0.025 -0,0.038c-0,5.984 -4.916,10.912 -10.9,10.926l-21.793,0c-5.982,-0.018 -10.893,-4.945 -10.893,-10.926c-0,-0.013 -0,-0.025 -0,-0.038c-0.019,-5.994 4.898,-10.943 10.893,-10.964Z" style="fill:#7c7f95;fill-rule:nonzero;"/><path d="M1625.47,605.689l21.797,0c6.016,0 10.896,4.907 10.896,10.964c0,0.011 0,0.023 0,0.034c0,5.985 -4.915,10.914 -10.9,10.93l-21.793,0c-5.983,-0.018 -10.896,-4.947 -10.896,-10.93c-0,-0.011 -0,-0.023 -0,-0.034c-0,-0.011 -0,-0.022 -0,-0.034c-0,-5.984 4.915,-10.913 10.9,-10.93l-0.004,0Z" style="fill:#4c4f6e;fill-rule:nonzero;"/><path d="M1799.83,583.765l65.383,0c6.019,0 10.9,4.907 10.9,10.964c0,0.01 0,0.02 0,0.03c0,5.985 -4.915,10.914 -10.9,10.93l-65.383,0c-5.994,-0.018 -10.913,-4.965 -10.896,-10.96c-0,-0.011 -0,-0.022 -0,-0.034c-0,-5.984 4.915,-10.913 10.9,-10.93l-0.004,0Z" style="fill:#2c2f53;fill-rule:nonzero;"/><path d="M1734.44,627.613l196.144,0c6.019,0 10.9,4.911 10.9,10.968c-0,0.011 -0,0.023 -0,0.034c-0,5.985 -4.915,10.914 -10.9,10.93l-196.144,-0c-5.995,-0.021 -10.912,-4.969 -10.893,-10.964c-0,-0.011 -0,-0.022 -0,-0.034c-0,-5.985 4.915,-10.914 10.9,-10.93l-0.007,-0.004Z" style="fill:#7c7f95;fill-rule:nonzero;"/></g><g><g><path d="M917.655,247.867l-33.156,-83.151c-1.259,-3.154 0.3,-6.786 3.454,-8.046c0.912,-0.355 1.894,-0.492 2.868,-0.4l203.928,17.101c1.595,0.134 3.077,0.882 4.133,2.084l-181.227,72.412Z" style="fill:#0942f0;fill-rule:nonzero;"/><path d="M919.055,252.768l180.878,-72.225c-0.121,1.293 -0.646,2.516 -1.5,3.494l-136.115,152.892c-1.767,1.992 -4.63,2.632 -7.077,1.582c-0.612,-0.263 -1.179,-0.623 -1.676,-1.067c-0.714,-0.642 -1.271,-1.439 -1.629,-2.33l-32.881,-82.346Z" style="fill:#47baff;fill-rule:nonzero;"/></g><g><path d="M562.294,383.523c-0,0 47.898,-96.631 262.873,-115.748" style="fill:none;stroke:#000;stroke-width:20.83px;stroke-dasharray:41.67,62.5,0,0;"/><path d="M1350.21,412.5c0,0 -40.743,-87.022 -255.39,-131.051" style="fill:none;stroke:#000;stroke-width:20.83px;stroke-dasharray:41.67,62.5,0,0;"/></g></g></svg>