<?xml version="1.0" standalone="no"?><!DOCTYPE svg PUBLIC "-//W3C//DTD SVG 1.1//EN" "http://www.w3.org/Graphics/SVG/1.1/DTD/svg11.dtd"><svg t="1642565034924" class="icon" viewBox="0 0 1024 1024" version="1.1" xmlns="http://www.w3.org/2000/svg" p-id="15312" xmlns:xlink="http://www.w3.org/1999/xlink" width="512" height="512"><defs><style type="text/css"></style></defs><path d="M593.677964 418.238836c0 40.848291 37.292218 53.266618 39.060945 53.266618 0 1.768727-5.3248 19.530473-19.530473 37.292218-12.436945 15.993018-24.855273 31.967418-44.404364 31.967418s-24.855273-10.6496-47.941818-10.6496c-21.317818 0-28.411345 10.6496-46.173091 10.6496-19.530473 0-33.736145-17.761745-44.404364-33.736145-24.855273-33.736145-42.617018-94.114909-17.761745-134.9632 12.436945-19.530473 35.523491-33.736145 58.610036-33.736145 17.761745 0 35.523491 12.436945 47.941818 12.436945 10.6496 0 31.967418-14.205673 55.053964-12.436945 8.880873 0 35.523491 3.556073 51.497891 26.642618C623.876655 368.509673 593.677964 384.502691 593.677964 418.238836L593.677964 418.238836zM515.537455 338.3296c-1.768727-15.9744 5.3248-31.967418 14.205673-42.617018 10.6496-10.6496 28.411345-19.530473 42.617018-19.530473 1.768727 15.9744-5.3248 31.967418-14.205673 42.617018C547.504873 329.448727 531.511855 338.3296 515.537455 338.3296L515.537455 338.3296zM515.537455 338.3296" p-id="15313"></path><path d="M756.363636 1024 267.636364 1024c-30.794473 0-55.854545-25.060073-55.854545-55.854545L211.781818 55.854545c0-30.794473 25.060073-55.854545 55.854545-55.854545l488.727273 0c30.794473 0 55.854545 25.060073 55.854545 55.854545l0 912.290909C812.218182 998.939927 787.158109 1024 756.363636 1024zM267.636364 37.236364C257.377745 37.236364 249.018182 45.577309 249.018182 55.854545l0 912.290909c0 10.277236 8.359564 18.618182 18.618182 18.618182l488.727273 0c10.258618 0 18.618182-8.340945 18.618182-18.618182L774.981818 55.854545c0-10.277236-8.359564-18.618182-18.618182-18.618182L267.636364 37.236364z" p-id="15314"></path><path d="M239.709091 86.891055l535.272727 0 0 37.236364-535.272727 0 0-37.236364Z" p-id="15315"></path><path d="M249.018182 806.781673l535.272727 0 0 37.236364-535.272727 0 0-37.236364Z" p-id="15316"></path><path d="M512 968.387491c-30.9248 0-56.096582-25.171782-56.096582-56.096582s25.171782-56.096582 56.096582-56.096582 56.096582 25.171782 56.096582 56.096582S542.9248 968.387491 512 968.387491zM512 893.430691c-10.407564 0-18.860218 8.452655-18.860218 18.860218s8.452655 18.860218 18.860218 18.860218 18.860218-8.452655 18.860218-18.860218S522.407564 893.430691 512 893.430691z" p-id="15317"></path></svg>